<svg width="40" height="30" fill="none" xmlns="http://www.w3.org/2000/svg"><g clip-path="url(#clip0)"><path d="M15 7.042h10v15.92H15V7.042z" fill="#FF5F00"/><path d="M16.077 15c0-3.103 1.446-6.034 3.923-7.96a10.364 10.364 0 00-6.357-2.165A10.398 10.398 0 006.35 7.838a9.97 9.97 0 00-2.228 3.27A10.074 10.074 0 003.333 15c.003 1.338.271 2.661.79 3.892a9.97 9.97 0 002.227 3.27 10.399 10.399 0 007.293 2.963c2.297.005 4.53-.757 6.357-2.167A10.04 10.04 0 0116.077 15z" fill="#EB001B"/><path d="M36.667 15a10.074 10.074 0 01-.79 3.892 9.97 9.97 0 01-2.227 3.27 10.398 10.398 0 01-7.295 2.963A10.366 10.366 0 0120 22.958c2.488-1.917 3.935-4.853 3.923-7.958 0-3.103-1.445-6.034-3.923-7.96a10.366 10.366 0 016.357-2.165c5.7 0 10.31 4.556 10.31 10.125z" fill="#F79E1B"/></g><defs><clipPath id="clip0"><path fill="#fff" d="M0 0h40v30H0z"/></clipPath></defs></svg>
