<svg width="124" height="26" viewBox="0 0 124 26" fill="none" xmlns="http://www.w3.org/2000/svg"><path d="M120.374 7.15829L117.494 14.2342C117.412 14.3165 117.412 14.4811 117.412 14.5634L117.329 14.7279L117.247 14.5634C117.247 14.4811 117.165 14.3165 117.165 14.2342L114.285 7.15829H110.583L115.437 19.2532L113.38 23.8608H117.083L123.912 7.15829H120.374Z" fill="black"></path><path d="M93.0568 7.8165C92.3985 7.32283 91.5758 6.99372 90.5884 6.91144C88.9429 6.74688 87.3796 7.32283 86.3099 8.39245V7.076H82.9365V19.1709H86.3099V12.8355C86.3099 11.4368 86.5568 11.0254 86.8036 10.6962C87.215 10.038 87.9555 9.70891 88.8606 9.70891C89.7656 9.70891 90.5884 10.1203 90.9998 10.7785C91.2467 11.2722 91.3289 11.9304 91.3289 12.2595C91.3289 13.3292 91.3289 19.1709 91.3289 19.1709H94.7023V11.8481C94.7023 9.95574 94.2087 8.63929 93.0568 7.8165Z" fill="black"></path><path d="M76.6014 7.24058C74.9558 6.66463 73.1457 6.7469 71.5001 7.48741C70.4305 7.98108 69.4432 8.80387 68.8672 9.87349C68.2913 10.7785 68.0444 11.9304 68.0444 13.1646C68.0444 14.3988 68.2913 15.5507 68.8672 16.4558C69.4432 17.3608 70.1837 18.1836 71.171 18.6773C72.1584 19.171 73.3103 19.5001 74.3799 19.5001C74.9558 19.5001 75.5318 19.4178 76.1077 19.2532C76.6014 19.0887 77.0951 18.9241 77.5887 18.6773C78.5761 18.1013 79.3989 17.3608 79.8925 16.4558C80.4685 15.5507 80.7153 14.3988 80.7153 13.1646C80.7153 10.4494 79.152 8.14564 76.6014 7.24058ZM77.5065 13.3292C77.4242 14.3988 77.0951 15.3039 76.4368 15.8798C75.9432 16.2912 75.2027 16.538 74.2976 16.6203C73.3925 16.6203 72.7343 16.3735 72.1584 15.8798C71.5001 15.3039 71.171 14.3988 71.0887 13.3292C71.0065 12.095 71.5001 11.1077 72.4052 10.4494C72.8989 10.1203 73.5571 9.87349 74.2153 9.87349C74.9558 9.87349 75.5318 10.1203 76.1077 10.4494C77.0951 11.0254 77.5887 12.095 77.5065 13.3292Z" fill="black"></path><path d="M64.0949 7.81647C63.4367 7.3228 62.6139 6.99369 61.6265 6.91141C61.462 6.91141 61.2152 6.91141 61.0506 6.91141C59.7341 6.91141 58.5822 7.48736 57.5949 8.63925L57.4303 8.88609H57.1012C56.8544 8.4747 56.5253 8.14558 56.1962 7.89875C55.5379 7.40508 54.7152 7.07596 53.7278 6.99368C52.1645 6.82913 50.9303 7.3228 49.8607 8.4747V7.24052H46.4873V19.3355H49.8607V13V12.8355C49.8607 11.519 50.0253 11.1899 50.2721 10.7785C50.6835 10.1203 51.424 9.70888 52.2468 9.79115C53.0696 9.79115 53.8101 10.2025 54.2215 10.8608C54.5506 11.3544 54.5506 11.9304 54.5506 12.5063V19.2532H57.924V12.7532C57.924 11.519 58.0886 11.1076 58.3354 10.6962C58.7468 10.038 59.4873 9.70888 60.3101 9.70888C61.1329 9.70888 61.7911 10.1203 62.2025 10.7785C62.4493 11.1899 62.5316 11.6836 62.5316 12.0127C62.5316 12.1772 62.5316 12.3418 62.5316 12.4241V19.1709H65.905V11.7658C65.905 11.1076 65.8228 10.4494 65.6582 9.87343C65.3291 9.05065 64.8354 8.31014 64.0949 7.81647Z" fill="black"></path><path d="M107.373 15.5507C106.879 16.0443 105.727 16.9494 104.164 17.0317C102.848 17.114 101.86 16.7026 101.12 15.9621C100.791 15.633 100.544 15.1393 100.379 14.6456H109.677V14.5633C109.759 14.0697 109.841 13.6583 109.841 13.1646C109.841 12.7532 109.759 12.1773 109.594 11.4368C109.183 10.038 108.36 8.9684 107.291 8.14561C106.056 7.24055 104.905 6.99371 104.575 6.99371C102.189 6.58232 99.4742 7.65194 98.0754 9.87346C97.0881 11.4368 97.1704 13 97.1704 13.4937C97.1704 14.0697 97.2527 15.8798 98.7337 17.5254C100.462 19.4178 102.848 19.5 103.588 19.5823C106.879 19.6646 109.101 17.6076 109.594 17.1962L107.373 15.5507ZM101.613 10.4494C102.107 10.1203 102.683 9.87346 103.424 9.87346C104.164 9.87346 104.74 10.1203 105.316 10.4494C105.81 10.8608 106.221 11.3545 106.468 11.9304H100.544C100.708 11.3545 101.037 10.7785 101.613 10.4494Z" fill="black"></path><path d="M23.6143 0C16.3738 0 10.6143 5.84177 10.6143 13C10.6143 20.2405 16.456 26 23.6143 26C30.7725 26 36.6143 20.1582 36.6143 13C36.6143 5.84177 30.7725 0 23.6143 0ZM23.6143 17.7721C20.9813 17.7721 18.7598 15.5506 18.7598 12.9177C18.7598 10.2848 20.9813 8.06329 23.6143 8.06329C26.2472 8.06329 28.4687 10.2848 28.4687 12.9177C28.3864 15.6329 26.2472 17.7721 23.6143 17.7721Z" fill="#8B3FFD"></path><path d="M10.5316 3.70255V22.6266H5.92405L0 3.70255H10.5316Z" fill="#8B3FFD"></path></svg>